<?xml version="1.0" encoding="UTF-8"?>
<!DOCTYPE svg PUBLIC "-//W3C//DTD SVG 1.1//EN" "http://www.w3.org/Graphics/SVG/1.1/DTD/svg11.dtd">
<!-- Creator: CorelDRAW 2021.5 -->
<svg xmlns="http://www.w3.org/2000/svg" xml:space="preserve" width="32px" height="32px" version="1.1" style="shape-rendering:geometricPrecision; text-rendering:geometricPrecision; image-rendering:optimizeQuality; fill-rule:evenodd; clip-rule:evenodd"
viewBox="0 0 32 32"
 xmlns:xlink="http://www.w3.org/1999/xlink"
 xmlns:xodm="http://www.corel.com/coreldraw/odm/2003">
 <defs>
  <style type="text/css">
   <![CDATA[
    .fil2 {fill:none}
    .fil0 {fill:black}
    .fil1 {fill:#A30951}
    .fil3 {fill:#E6323B}
    .fil5 {fill:#F4EDD3}
    .fil4 {fill:#F5963C}
   ]]>
  </style>
 </defs>
 <g id="Layer_x0020_1">
  <metadata id="CorelCorpID_0Corel-Layer"/>
  <g id="_1922101531136">
   <g>
    <path class="fil0" d="M9.38 4.78c0,-0.01 0,-0.03 0,-0.04 -0.08,-0.84 0.41,-1.61 1.2,-1.89 0.03,-0.01 0.06,-0.02 0.08,-0.03l5.09 -1.6c0,0 0,0 0,0l0.21 -0.07c0.17,-0.05 0.34,-0.08 0.51,-0.09 0.22,0 0.43,0.03 0.62,0.1 0.14,0.04 0.28,0.11 0.4,0.19 0.04,-0.01 0.07,-0.03 0.1,-0.04 0.49,-0.17 0.97,-0.15 1.43,0.08l7.37 3.61c0.59,0.29 0.96,0.86 1.01,1.47 0.49,0.39 0.74,1.01 0.68,1.62l1.28 0.63c0.87,0.42 1.25,1.45 0.88,2.35l-3.89 9.24c-0.36,0.87 -1.33,1.32 -2.23,1.03l-4.35 -1.36 0.46 7.57c0.06,0.93 -0.57,1.74 -1.49,1.91l-1.44 0.27c-0.49,0.09 -0.95,0 -1.37,-0.29l-0.76 -0.52c-0.31,-0.02 -0.61,-0.12 -0.89,-0.31l-5.58 -3.82 -1.73 -0.36c-0.47,-0.1 -0.86,-0.35 -1.12,-0.73l-0.53 -0.11c-0.64,-0.13 -1.13,-0.56 -1.35,-1.18 -0.1,-0.28 -0.13,-0.55 -0.1,-0.82 -0.06,-0.06 -0.12,-0.11 -0.17,-0.17 -0.16,-0.17 -0.29,-0.39 -0.37,-0.63 -0.05,-0.14 -0.09,-0.29 -0.1,-0.43 -0.26,-0.21 -0.46,-0.49 -0.58,-0.82 -0.22,-0.62 -0.1,-1.26 0.31,-1.77l3.46 -4.23c0.36,-0.44 0.85,-0.67 1.42,-0.67 0.57,0 1.06,0.23 1.42,0.67l1.62 1.98 -1.49 -10.68c0,-0.02 -0.01,-0.04 -0.01,-0.06z"/>
   </g>
   <g>
    <g>
     <polygon class="fil1" points="28.55,10.36 21.19,6.75 18.94,11.77 24.67,12.47 23.43,15.41 19.04,13.04 18.27,17.59 24.67,19.6 "/>
     <g>
      <g>
       <line class="fil2" x1="14.17" y1="8.28" x2="16.56" y2= "25.44" />
       <polyline class="fil2" points="16.56,25.44 10.81,18.41 7.35,22.64 10.04,23.2 16.97,27.93 18.41,27.66 17.67,15.61 19.48,6.61 14.17,8.28 "/>
      </g>
      <polygon class="fil1" points="16.56,25.44 14.17,8.28 19.48,6.61 17.67,15.61 18.41,27.66 16.97,27.93 10.04,23.2 7.35,22.64 10.81,18.41 "/>
      <line class="fil2" x1="14.17" y1="8.28" x2="19.26" y2= "6.68" />
     </g>
    </g>
    <g>
     <polygon class="fil3" points="26.9,9.52 19.54,5.91 17.29,10.93 23.02,11.63 21.78,14.58 17.39,12.2 16.62,16.75 23.02,18.76 "/>
     <g>
      <g>
       <line class="fil2" x1="12.52" y1="7.45" x2="14.91" y2= "24.6" />
       <polyline class="fil2" points="14.91,24.6 9.16,17.58 5.7,21.8 8.39,22.36 15.32,27.09 16.76,26.83 16.02,14.78 17.83,5.77 12.52,7.45 "/>
      </g>
      <polygon class="fil3" points="14.91,24.6 12.52,7.45 17.83,5.77 16.02,14.78 16.76,26.83 15.32,27.09 8.39,22.36 5.7,21.8 9.16,17.58 "/>
      <line class="fil2" x1="12.52" y1="7.45" x2="17.61" y2= "5.84" />
     </g>
    </g>
    <g>
     <polygon class="fil4" points="26.26,7.9 18.89,4.29 16.65,9.31 22.37,10.01 21.14,12.95 16.75,10.58 15.98,15.13 22.37,17.14 "/>
     <g>
      <g>
       <line class="fil2" x1="11.87" y1="5.82" x2="14.27" y2= "22.98" />
       <polyline class="fil2" points="14.27,22.98 8.51,15.95 5.05,20.18 7.75,20.74 14.67,25.47 16.11,25.2 15.38,13.15 17.19,4.15 11.87,5.82 "/>
      </g>
      <polygon class="fil4" points="14.27,22.98 11.87,5.82 17.19,4.15 15.38,13.15 16.11,25.2 14.67,25.47 7.75,20.74 5.05,20.18 8.51,15.95 "/>
      <line class="fil2" x1="11.87" y1="5.82" x2="16.97" y2= "4.22" />
     </g>
    </g>
    <g>
     <polygon class="fil5" points="25.58,6.65 18.22,3.03 15.98,8.05 21.7,8.76 20.46,11.7 16.08,9.33 15.31,13.88 21.7,15.88 "/>
     <g>
      <g>
       <line class="fil2" x1="11.2" y1="4.57" x2="13.59" y2= "21.73" />
       <polyline class="fil2" points="13.59,21.73 7.84,14.7 4.38,18.93 7.08,19.49 14,24.22 15.44,23.95 14.7,11.9 16.51,2.9 11.2,4.57 "/>
      </g>
      <polygon class="fil5" points="13.59,21.73 11.2,4.57 16.51,2.9 14.7,11.9 15.44,23.95 14,24.22 7.08,19.49 4.38,18.93 7.84,14.7 "/>
      <line class="fil2" x1="11.2" y1="4.57" x2="16.3" y2= "2.97" />
     </g>
    </g>
   </g>
  </g>
 </g>
</svg>
